<?xml version="1.0" standalone="no"?>
<!DOCTYPE svg PUBLIC "-//W3C//DTD SVG 20010904//EN"
 "http://www.w3.org/TR/2001/REC-SVG-20010904/DTD/svg10.dtd">
<svg version="1.0" xmlns="http://www.w3.org/2000/svg"
 width="512.000000pt" height="512.000000pt" viewBox="0 0 512.000000 512.000000"
 preserveAspectRatio="xMidYMid meet">
<metadata>
Created by potrace 1.14, written by Peter Selinger 2001-2017
</metadata>
<g transform="translate(0.000000,512.000000) scale(0.100000,-0.100000)"
fill="#000000" stroke="none">
<path d="M3450 2839 l0 -541 -216 209 c-119 114 -219 209 -222 210 -4 0 -47
-44 -96 -99 l-89 -100 389 -389 389 -389 389 389 390 390 -89 98 c-49 54 -91
100 -92 102 -2 3 -101 -92 -221 -210 l-217 -214 -3 543 -2 542 -155 0 -155 0
0 -541z"/>
<path d="M870 2560 l0 -760 185 0 185 0 0 75 0 75 390 0 390 0 0 -75 0 -75
185 0 185 0 0 760 0 760 -760 0 -760 0 0 -760z m1150 75 l0 -315 -387 2 -388
3 -3 313 -2 312 390 0 390 0 0 -315z"/>
</g>
</svg>
